<svg xmlns="http://www.w3.org/2000/svg" viewBox="-11368684e-20 20 735.6667 887" width="735.667" height="887"><defs><clipPath id="a"><path d="M30 166h123.667v56H30z"/></clipPath><clipPath id="b"><path d="M30 326.5h123.667v56H30z"/></clipPath><clipPath id="c"><path d="M275 328.833h130V397.5H275z"/></clipPath><clipPath id="d"><path d="M390.667 165.667h130v54h-130z"/></clipPath><clipPath id="e"><path d="M505.5 328.833h130V397.5h-130z"/></clipPath><clipPath id="f"><path d="M390.667 587.167h130v54h-130z"/></clipPath><clipPath id="g"><path d="M275 750.333h130v56H275z"/></clipPath><clipPath id="h"><path d="M505.917 750.333h130v56h-130z"/></clipPath></defs><g fill="none"><title>120788894_Shared VPC Example Diagram</title><title>Layer 1</title><path fill="#eaedef" d="M0 20h735.667v887H0z"/><title>Page-1</title><title>Shape</title><path d="M28.808 51.03l-2.148 3.733h-5.625a1.4 1.4 0 0 1-1.215-.704l-4.55-7.933a1.401 1.401 0 0 1 0-1.392l1.732-3.018 2.137 3.713 3.222 5.6z" fill="#fbbc05"/><title>Shape</title><path d="M35.899 46.126l-4.55 7.934a1.4 1.4 0 0 1-1.214.704h-3.476l2.147-3.734 3.225-5.6-3.225-5.6h4.28l2.812 4.904c.249.43.25.961.001 1.392z" fill="#ea4335"/><title>Shape</title><path d="M33.087 39.83H22.36l-3.222 5.6-2.137-3.715L19.82 36.8a1.4 1.4 0 0 1 1.215-.704h9.1a1.4 1.4 0 0 1 1.215.704z" fill="#4285f4"/><title>Shape</title><title>Oval</title><circle cx="25.585" cy="45.429" r="2.801" fill="#fff"/><title>GCP logo</title><title>Fill-3</title><path d="M94.683 45.734c0-3.23 2.441-5.671 5.64-5.671 1.639 0 3.019.652 3.99 1.774l-.971.94c-.758-.94-1.775-1.38-3.018-1.38-2.29 0-4.216 1.668-4.216 4.337 0 2.67 1.926 4.337 4.216 4.337 1.365 0 2.517-.636 3.336-1.577l.97.97c-.955 1.138-2.486 1.942-4.306 1.942-3.2 0-5.641-2.442-5.641-5.672" fill="#757575"/><title>Fill-5</title><path fill="#757575" d="M105.722 40.306h1.395v10.858h-1.395z"/><title>Fill-7</title><path d="M114.41 47.448c0-1.698-1.182-2.684-2.426-2.684-1.243 0-2.426.986-2.426 2.684 0 1.699 1.183 2.684 2.426 2.684 1.244 0 2.427-.985 2.427-2.684m1.395 0c0 2.26-1.593 3.958-3.822 3.958s-3.821-1.699-3.821-3.958c0-2.26 1.592-3.958 3.821-3.958 2.23 0 3.822 1.699 3.822 3.958" fill="#757575"/><title>Fill-8</title><path d="M122.114 51.163v-1.03h-.06c-.41.681-1.336 1.273-2.351 1.273-1.911 0-2.836-1.29-2.836-3.124v-4.55h1.395v4.323c0 1.547.773 2.077 1.834 2.077 1.214 0 1.957-1.168 1.957-2.305v-4.094h1.395v7.43z" fill="#757575"/><title>Fill-9</title><path d="M130.696 47.448c0-1.698-1.122-2.684-2.366-2.684-1.243 0-2.365 1.016-2.365 2.684 0 1.668 1.122 2.684 2.365 2.684 1.244 0 2.366-.985 2.366-2.684m-6.126 0c0-2.275 1.652-3.958 3.533-3.958 1.183 0 2.108.591 2.532 1.274h.061l-.061-1.03v-3.428h1.395v10.857h-1.334v-1.031h-.061c-.424.682-1.35 1.274-2.532 1.274-1.88 0-3.533-1.683-3.533-3.958" fill="#757575"/><title>Fill-10</title><path d="M139.566 45.431c1.244 0 1.941-1.03 1.941-1.895 0-.864-.697-1.896-1.94-1.896h-2.336v3.791zm-3.73 5.732V40.306h3.7c1.804 0 3.396 1.334 3.396 3.23 0 1.895-1.592 3.23-3.396 3.23h-2.305v4.397z" fill="#757575"/><title>Fill-11</title><path fill="#757575" d="M143.918 40.306h1.395v10.858h-1.395z"/><title>Fill-12</title><path d="M151.788 47.964s-.592-.485-1.775-.485c-1.47 0-2.047.788-2.047 1.47 0 .789.82 1.183 1.547 1.183 1.107 0 2.275-.956 2.275-2.168m-5.278.955c0-1.683 1.517-2.593 3.261-2.593 1 0 1.728.288 2.017.455v-.213c0-1.122-.895-1.804-1.942-1.804-.772 0-1.516.379-1.774 1.076l-1.273-.546c.257-.682 1.152-1.804 3.017-1.804 1.82 0 3.306 1.092 3.306 3.185v4.488h-1.334v-1.03h-.061c-.41.62-1.168 1.273-2.441 1.273-1.517 0-2.776-.94-2.776-2.487" fill="#757575"/><title>Fill-13</title><path d="M155.139 48.904v-3.898h-1.304v-1.273h1.304v-2.275h1.395v2.275h1.82v1.273h-1.82v3.792c0 .834.349 1.213 1 1.213.258 0 .44-.03.637-.122l.486 1.198c-.319.137-.652.197-1.122.197-1.563 0-2.396-.864-2.396-2.38" fill="#757575"/><title>Fill-14</title><path d="M164.206 40.442l-.485 1.198c-.182-.091-.379-.121-.637-.121-.698 0-1.243.409-1.243 1.274v.94h1.94v1.273h-1.94v6.157h-1.395v-6.157h-1.396v-1.273h1.396v-.986c0-1.516 1.076-2.502 2.638-2.502.47 0 .804.061 1.122.197" fill="#757575"/><title>Fill-15</title><path d="M170.408 47.448c0-1.698-1.183-2.684-2.426-2.684-1.244 0-2.426.986-2.426 2.684 0 1.699 1.182 2.684 2.426 2.684 1.243 0 2.426-.985 2.426-2.684m1.395 0c0 2.26-1.592 3.958-3.821 3.958-2.23 0-3.822-1.699-3.822-3.958 0-2.26 1.593-3.958 3.822-3.958s3.821 1.699 3.821 3.958" fill="#757575"/><title>Fill-16</title><path d="M172.925 51.163v-7.43h1.334v1.213h.061c.303-.849 1.38-1.395 2.154-1.395.454 0 .758.06 1.046.182l-.53 1.304c-.198-.076-.44-.106-.744-.106-.956 0-1.926.803-1.926 2.169v4.063z" fill="#757575"/><title>Fill-17</title><path d="M178.278 43.733h1.334v1.03h.06c.426-.712 1.411-1.273 2.29-1.273 1.198 0 1.972.546 2.35 1.425a3.023 3.023 0 0 1 2.594-1.425c1.82 0 2.654 1.29 2.654 3.124v4.55h-1.395v-4.337c0-1.547-.592-2.063-1.653-2.063-1.138 0-1.896 1.152-1.896 2.29v4.11h-1.395v-4.337c0-1.547-.591-2.063-1.653-2.063-1.137 0-1.896 1.152-1.896 2.29v4.11h-1.394z" fill="#757575"/><title>Fill-18</title><path d="M42.095 45.189c0-3.428 2.881-6.218 6.309-6.218 1.895 0 3.245.743 4.26 1.714l-1.197 1.198c-.728-.682-1.714-1.213-3.063-1.213-2.503 0-4.459 2.016-4.459 4.519 0 2.502 1.956 4.519 4.459 4.519 1.622 0 2.547-.652 3.138-1.244.486-.485.805-1.183.926-2.138h-4.064v-1.698h5.716c.061.303.091.667.091 1.06 0 1.275-.348 2.852-1.47 3.974-1.092 1.137-2.487 1.744-4.337 1.744-3.428 0-6.309-2.79-6.309-6.217" fill="#757575"/><title>Fill-19</title><path d="M58.832 49.829c-1.214 0-2.26-1.001-2.26-2.427 0-1.44 1.046-2.426 2.26-2.426 1.213 0 2.259.986 2.259 2.426 0 1.426-1.046 2.427-2.26 2.427m0-6.43c-2.214 0-4.018 1.683-4.018 4.003 0 2.305 1.804 4.004 4.019 4.004 2.213 0 4.018-1.699 4.018-4.004 0-2.32-1.805-4.003-4.018-4.003" fill="#757575"/><title>Fill-20</title><path d="M67.598 49.829c-1.213 0-2.26-1.001-2.26-2.427 0-1.44 1.047-2.426 2.26-2.426 1.213 0 2.26.986 2.26 2.426 0 1.426-1.047 2.427-2.26 2.427m0-6.43c-2.214 0-4.019 1.683-4.019 4.003 0 2.305 1.805 4.004 4.019 4.004 2.214 0 4.019-1.699 4.019-4.004 0-2.32-1.805-4.003-4.019-4.003" fill="#757575"/><title>Fill-21</title><path d="M76.341 49.829c-1.212 0-2.229-1.016-2.229-2.411 0-1.41 1.017-2.442 2.23-2.442 1.197 0 2.137 1.031 2.137 2.442 0 1.395-.94 2.41-2.138 2.41zm2.017-6.187v.652h-.06c-.395-.47-1.153-.895-2.108-.895-2.002 0-3.837 1.759-3.837 4.019 0 2.244 1.835 3.988 3.837 3.988.955 0 1.713-.425 2.107-.91h.061v.576c0 1.532-.819 2.35-2.138 2.35-1.077 0-1.744-.772-2.017-1.425l-1.532.637C73.111 53.696 74.28 55 76.22 55c2.063 0 3.806-1.213 3.806-4.17v-7.188z" fill="#757575"/><title>Fill-22</title><path fill="#757575" d="M81.24 39.396h1.759v11.767H81.24z"/><title>Fill-23</title><path d="M87.684 44.946c.698 0 1.29.349 1.486.85l-3.578 1.485c-.046-1.547 1.197-2.335 2.092-2.335m.137 4.883c-.895 0-1.532-.41-1.941-1.213l5.353-2.214-.182-.455c-.334-.895-1.35-2.548-3.427-2.548-2.063 0-3.776 1.623-3.776 4.003 0 2.245 1.698 4.004 3.973 4.004 1.835 0 2.896-1.122 3.336-1.774l-1.365-.91c-.455.667-1.077 1.107-1.971 1.107" fill="#757575"/><title>zone external - blue</title><path d="M20 121.667h143.667V242H20z" stroke="#616161" stroke-linecap="round" stroke-linejoin="round" stroke-dasharray="1.0,3.0"/><text transform="translate(30 136.667)" fill="#757575"><tspan font-family="Roboto" font-size="10" font-weight="400" x="0" y="9">Service Project A</tspan></text><title>Compute Engine</title><path fill="#fff" d="M30 166h123.667v56H30z"/><path stroke="#dfdfdf" stroke-linecap="round" stroke-linejoin="round" stroke-width="2" clip-path="url(#a)" d="M30 166h123.667v56H30z"/><text transform="translate(81 187)" fill="#212121"><tspan font-family="Roboto" font-size="12" font-weight="400" x="0" y="11">Instance A</tspan></text><title>Compute Engine</title><title>Fill-1</title><path d="M73.666 192.714l-5.754-10.006c-.461-.8-1.297-1.286-2.158-1.286H54.246c-.922 0-1.727.54-2.158 1.285l-5.754 9.986a2.51 2.51 0 0 0 0 2.502l5.754 10.052c.46.798 1.297 1.331 2.158 1.331h11.508c.922 0 1.727-.581 2.158-1.326l5.754-10.006a2.566 2.566 0 0 0 0-2.532" fill="#4285f4"/><title>Fill-4</title><path d="M72.015 198.117l-9.47-9.47-.679 1.47-1.476-1.476-.684 1.463-1.46-1.46-.358 1.77-1.3.223-.269 1.155-1.68.401 1.506 1.506-1.49.664 1.49 1.49-1.5.64 10.086 10.085h1.023c.922 0 1.727-.581 2.158-1.326z" fill="#000" fill-opacity=".07"/><title>Fill-7</title><path d="M61.275 192.49H58.78a.266.266 0 0 0-.266.265v2.495c.001.147.12.266.266.266h2.495a.267.267 0 0 0 .266-.266v-2.495a.266.266 0 0 0-.266-.265" fill="#fff"/><title>Fill-9</title><path d="M63.116 197.091h-6.177v-6.176h6.177zm2.11-4.803a.24.24 0 0 0 .238-.238v-.389a.24.24 0 0 0-.238-.238h-1.214v-1.134a.267.267 0 0 0-.266-.266h-1.139v-1.218a.24.24 0 0 0-.238-.239h-.389a.24.24 0 0 0-.238.239v1.218H60.46v-1.219a.24.24 0 0 0-.238-.238h-.389a.24.24 0 0 0-.238.239v1.218h-1.282v-1.219a.24.24 0 0 0-.238-.238h-.389a.24.24 0 0 0-.238.239v1.218H56.31a.266.266 0 0 0-.266.265v1.135H54.83a.24.24 0 0 0-.239.238v.39a.24.24 0 0 0 .239.237h1.213v1.282H54.83a.24.24 0 0 0-.238.238v.389c0 .131.106.238.238.238h1.214v1.282H54.83a.24.24 0 0 0-.238.238v.389c0 .131.106.238.238.238h1.214v1.135c0 .147.119.265.265.266h1.14v1.218a.24.24 0 0 0 .237.238h.389a.239.239 0 0 0 .238-.238v-1.218h1.282v1.218c0 .131.107.238.238.238h.389a.239.239 0 0 0 .238-.238v-1.218h1.282v1.218a.24.24 0 0 0 .238.238h.389a.24.24 0 0 0 .238-.238v-1.218h1.14a.267.267 0 0 0 .265-.266v-1.135h1.214a.239.239 0 0 0 .238-.238v-.388a.239.239 0 0 0-.238-.239h-1.214v-1.282h1.214a.239.239 0 0 0 .238-.238v-.388a.24.24 0 0 0-.238-.239h-1.214v-1.282z" fill="#fff"/><title>zone external - blue</title><path d="M20 282h143.667v120.333H20z" stroke="#616161" stroke-linecap="round" stroke-linejoin="round" stroke-dasharray="1.0,3.0"/><text transform="translate(30 297)" fill="#757575"><tspan font-family="Roboto" font-size="10" font-weight="400" x="0" y="9">Service Project B</tspan></text><title>Compute Engine</title><path fill="#fff" d="M30 326.5h123.667v56H30z"/><path stroke="#dfdfdf" stroke-linecap="round" stroke-linejoin="round" stroke-width="2" clip-path="url(#b)" d="M30 326.5h123.667v56H30z"/><text transform="translate(81 347.5)" fill="#212121"><tspan font-family="Roboto" font-size="12" font-weight="400" x="0" y="11">Instance B</tspan></text><title>Compute Engine</title><title>Fill-1</title><path d="M73.666 353.214l-5.754-10.006c-.461-.8-1.297-1.286-2.158-1.286H54.246c-.922 0-1.727.54-2.158 1.285l-5.754 9.986a2.51 2.51 0 0 0 0 2.502l5.754 10.052c.46.798 1.297 1.331 2.158 1.331h11.508c.922 0 1.727-.581 2.158-1.326l5.754-10.006a2.566 2.566 0 0 0 0-2.532" fill="#4285f4"/><title>Fill-4</title><path d="M72.015 358.617l-9.47-9.47-.679 1.47-1.476-1.476-.684 1.463-1.46-1.46-.358 1.77-1.3.223-.269 1.155-1.68.401 1.506 1.506-1.49.664 1.49 1.49-1.5.64 10.086 10.085h1.023c.922 0 1.727-.581 2.158-1.326z" fill="#000" fill-opacity=".07"/><title>Fill-7</title><path d="M61.275 352.99H58.78a.266.266 0 0 0-.266.265v2.495c.001.147.12.266.266.266h2.495a.267.267 0 0 0 .266-.266v-2.495a.266.266 0 0 0-.266-.265" fill="#fff"/><title>Fill-9</title><path d="M63.116 357.591h-6.177v-6.176h6.177zm2.11-4.803a.24.24 0 0 0 .238-.238v-.389a.24.24 0 0 0-.238-.238h-1.214v-1.134a.267.267 0 0 0-.266-.266h-1.139v-1.218a.24.24 0 0 0-.238-.239h-.389a.24.24 0 0 0-.238.239v1.218H60.46v-1.219a.24.24 0 0 0-.238-.238h-.389a.24.24 0 0 0-.238.239v1.218h-1.282v-1.219a.24.24 0 0 0-.238-.238h-.389a.24.24 0 0 0-.238.239v1.218H56.31a.266.266 0 0 0-.266.265v1.135H54.83a.24.24 0 0 0-.239.238v.39a.24.24 0 0 0 .239.237h1.213v1.282H54.83a.24.24 0 0 0-.238.238v.389c0 .131.106.238.238.238h1.214v1.282H54.83a.24.24 0 0 0-.238.238v.389c0 .131.106.238.238.238h1.214v1.135c0 .147.119.265.265.266h1.14v1.218a.24.24 0 0 0 .237.238h.389a.239.239 0 0 0 .238-.238v-1.218h1.282v1.218c0 .131.107.238.238.238h.389a.239.239 0 0 0 .238-.238v-1.218h1.282v1.218a.24.24 0 0 0 .238.238h.389a.24.24 0 0 0 .238-.238v-1.218h1.14a.267.267 0 0 0 .265-.266v-1.135h1.214a.239.239 0 0 0 .238-.238v-.388a.239.239 0 0 0-.238-.239h-1.214v-1.282h1.214a.239.239 0 0 0 .238-.238v-.388a.24.24 0 0 0-.238-.239h-1.214v-1.282z" fill="#fff"/><g><title>zone external - grey</title><path d="M194.333 76h521.334v401.5H194.333z" stroke="#616161" stroke-linecap="round" stroke-linejoin="round" stroke-dasharray="1.0,3.0"/><text transform="translate(204.333 91)" fill="#757575"><tspan font-family="Roboto" font-size="10" font-weight="400" x="0" y="9">Host Project</tspan></text></g><g><title>zone external - grey</title><path fill="#e5f5fd" d="M215.667 121.667h480V457.5h-480z"/><path stroke="#fff" stroke-linecap="round" stroke-linejoin="round" stroke-width="2" d="M215.667 121.667h480V457.5h-480z"/><text transform="translate(225.667 136.667)" fill="#757575"><tspan font-family="Roboto" font-size="10" font-weight="400" x="25" y="9">Shared VPC Network</tspan></text></g><g><title>zone internal - green</title><path fill="#e2f3ec" d="M234.333 239.667H445V437.5H234.333z"/><path stroke="#fff" stroke-linecap="round" stroke-linejoin="round" stroke-width="2" d="M234.333 239.667H445V437.5H234.333z"/><text transform="translate(244.333 254.667)" fill="#757575"><tspan font-family="Roboto" font-size="10" font-weight="400" x="0" y="9">us-west1 Region</tspan></text></g><g><title>Virtual Private Cloud</title><title>Fill-1</title><path d="M242.912 140.836l-3.864-6.72c-.31-.536-.871-.863-1.449-.863h-7.728c-.62 0-1.16.363-1.45.863l-3.863 6.706a1.686 1.686 0 0 0 0 1.68l3.863 6.75c.31.537.872.895 1.45.895h7.727c.62 0 1.16-.39 1.45-.89l3.864-6.72c.31-.537.288-1.2 0-1.7" fill="#4285f4"/><path d="M242.912 140.836l-3.864-6.72c-.31-.536-.871-.863-1.449-.863h-7.728c-.62 0-1.16.363-1.45.863l-3.863 6.706a1.686 1.686 0 0 0 0 1.68l3.863 6.75c.31.537.872.895 1.45.895h7.727c.62 0 1.16-.39 1.45-.89l3.864-6.72c.31-.537.288-1.2 0-1.7"/><title>Fill-4</title><path d="M237.207 138.219l-3.071 1.476-1.47-1.469-2.4 2.412 1.599 1.598-1.6 2.934 4.976 4.977h2.357c.62 0 1.16-.39 1.45-.89l3.357-5.84z" fill="#000" fill-opacity=".07"/><path d="M237.207 138.219l-3.071 1.476-1.47-1.469-2.4 2.412 1.599 1.598-1.6 2.934 4.976 4.977h2.357c.62 0 1.16-.39 1.45-.89l3.357-5.84z"/><title>Fill-7</title><path fill="#fff" d="M231.238 140.304h.734v2.864h-.734z"/><path d="M231.238 140.304h.734v2.864h-.734z"/><title>Fill-9</title><path fill="#fff" d="M235.498 139.956h.734v3.206h-.734z"/><path d="M235.498 139.956h.734v3.206h-.734z"/><title>Fill-10</title><path fill="#fff" d="M232.321 139.203h2.828v.734h-2.828z"/><path d="M232.321 139.203h2.828v.734h-2.828z"/><title>Fill-11</title><path fill="#fff" d="M232.321 143.463h2.828v.734h-2.828z"/><path d="M232.321 143.463h2.828v.734h-2.828z"/><g><title>Fill-12</title><path d="M230.356 138.174h2.204c.08 0 .147.066.147.147v2.204a.147.147 0 0 1-.147.147h-2.204a.147.147 0 0 1-.147-.147v-2.204c0-.08.066-.147.147-.147" fill="#fff"/><path d="M230.356 138.174h2.204c.08 0 .147.066.147.147v2.204a.147.147 0 0 1-.147.147h-2.204a.147.147 0 0 1-.147-.147v-2.204c0-.08.066-.147.147-.147"/></g><g><title>Fill-13</title><path d="M234.91 138.174h2.203c.082 0 .147.066.147.147v2.204a.147.147 0 0 1-.147.147h-2.203a.147.147 0 0 1-.147-.147v-2.204c0-.08.066-.147.147-.147" fill="#fff"/><path d="M234.91 138.174h2.203c.082 0 .147.066.147.147v2.204a.147.147 0 0 1-.147.147h-2.203a.147.147 0 0 1-.147-.147v-2.204c0-.08.066-.147.147-.147"/></g><g><title>Fill-14</title><path d="M230.356 142.728h2.204c.08 0 .147.066.147.147v2.204a.147.147 0 0 1-.147.147h-2.204a.147.147 0 0 1-.147-.147v-2.204c0-.08.066-.147.147-.147" fill="#fff"/><path d="M230.356 142.728h2.204c.08 0 .147.066.147.147v2.204a.147.147 0 0 1-.147.147h-2.204a.147.147 0 0 1-.147-.147v-2.204c0-.08.066-.147.147-.147"/></g><g><title>Fill-15</title><path d="M234.91 142.728h2.203c.082 0 .147.066.147.147v2.204a.147.147 0 0 1-.147.147h-2.203a.147.147 0 0 1-.147-.147v-2.204c0-.08.066-.147.147-.147" fill="#fff"/><path d="M234.91 142.728h2.203c.082 0 .147.066.147.147v2.204a.147.147 0 0 1-.147.147h-2.203a.147.147 0 0 1-.147-.147v-2.204c0-.08.066-.147.147-.147"/></g></g><g><title>zone internal - purple</title><path fill="#ede7f7" d="M255.5 285.167H425V417.5H255.5z"/><path stroke="#fff" stroke-linecap="round" stroke-linejoin="round" stroke-width="2" d="M255.5 285.167H425V417.5H255.5z"/><text transform="translate(265.5 300.167)" fill="#757575"><tspan font-family="Roboto" font-size="10" font-weight="400" x="0" y="9">10.0.1.0/24 Subnet</tspan></text></g><g><path fill="#fff" d="M275 328.833h130V397.5H275z"/><path stroke="#dfdfdf" stroke-linecap="round" stroke-linejoin="round" stroke-width="2" clip-path="url(#c)" d="M275 328.833h130V397.5H275z"/><text transform="translate(288 342.167)" fill="#212121"><tspan font-family="Roboto" font-size="12" font-weight="400" x="1.948" y="11">Internal IP Address </tspan> <tspan font-family="Roboto" font-size="12" font-weight="400" x="15.19" y="25">for Instance A</tspan> <tspan font-family="Roboto" font-size="12" font-weight="400" x="30.917" y="39">10.0.1.3</tspan></text></g><g><title>VPN gateway</title><path fill="#fff" d="M390.667 165.667h130v54h-130z"/><path stroke="#dfdfdf" stroke-linecap="round" stroke-linejoin="round" stroke-width="2" clip-path="url(#d)" d="M390.667 165.667h130v54h-130z"/><text transform="translate(431.667 185.667)" fill="#212121"><tspan font-family="Roboto" font-size="12" font-weight="400" x="0" y="11">VPC Routing</tspan></text><path d="M422.667 188.667h-14c-1.1 0-2 .9-2 2v4c0 1.1.9 2 2 2h14c1.1 0 2-.9 2-2v-4c0-1.1-.9-2-2-2zm-11 5h-2v-2h2zm3.5 0h-2v-2h2zm3.5 0h-2v-2h2z" fill="#616161"/></g><g><title>zone internal - green</title><path fill="#e2f3ec" d="M465 239.667h210.667V437.5H465z"/><path stroke="#fff" stroke-linecap="round" stroke-linejoin="round" stroke-width="2" d="M465 239.667h210.667V437.5H465z"/><text transform="translate(475 254.667)" fill="#757575"><tspan font-family="Roboto" font-size="10" font-weight="400" x="0" y="9">us-east1 Region</tspan></text></g><g><title>zone internal - purple</title><path fill="#ede7f7" d="M486.167 285.167h169.5V417.5h-169.5z"/><path stroke="#fff" stroke-linecap="round" stroke-linejoin="round" stroke-width="2" d="M486.167 285.167h169.5V417.5h-169.5z"/><text transform="translate(496.167 300.167)" fill="#757575"><tspan font-family="Roboto" font-size="10" font-weight="400" x="0" y="9">10.15.2.0/24 Subnet</tspan></text></g><g><path fill="#fff" d="M505.5 328.833h130V397.5h-130z"/><path stroke="#dfdfdf" stroke-linecap="round" stroke-linejoin="round" stroke-width="2" clip-path="url(#e)" d="M505.5 328.833h130V397.5h-130z"/><text transform="translate(518.5 342.167)" fill="#212121"><tspan font-family="Roboto" font-size="12" font-weight="400" x="1.948" y="11">Internal IP Address </tspan> <tspan font-family="Roboto" font-size="12" font-weight="400" x="15.369" y="25">for Instance B</tspan> <tspan font-family="Roboto" font-size="12" font-weight="400" x="27.548" y="39">10.15.2.4</tspan></text></g><g><title>zone external - grey</title><path d="M194.333 497.5h521.334V887H194.333z" stroke="#616161" stroke-linecap="round" stroke-linejoin="round" stroke-dasharray="1.0,3.0"/><text transform="translate(204.333 512.5)" fill="#757575"><tspan font-family="Roboto" font-size="10" font-weight="400" x="0" y="9">Standalone Project</tspan></text></g><g><title>zone external - grey</title><path fill="#e5f5fd" d="M215.667 543.167h480V867h-480z"/><path stroke="#fff" stroke-linecap="round" stroke-linejoin="round" stroke-width="2" d="M215.667 543.167h480V867h-480z"/><text transform="translate(225.667 558.167)" fill="#757575"><tspan font-family="Roboto" font-size="10" font-weight="400" x="25" y="9">VPC Network</tspan></text></g><g><title>zone internal - green</title><path fill="#e2f3ec" d="M234.333 661.167H445V847H234.333z"/><path stroke="#fff" stroke-linecap="round" stroke-linejoin="round" stroke-width="2" d="M234.333 661.167H445V847H234.333z"/><text transform="translate(244.333 676.167)" fill="#757575"><tspan font-family="Roboto" font-size="10" font-weight="400" x="0" y="9">us-west1 Region</tspan></text></g><g><title>Virtual Private Cloud</title><title>Fill-1</title><path d="M242.912 562.336l-3.864-6.72c-.31-.536-.871-.863-1.449-.863h-7.728c-.62 0-1.16.363-1.45.863l-3.863 6.706a1.686 1.686 0 0 0 0 1.68l3.863 6.75c.31.537.872.895 1.45.895h7.727c.62 0 1.16-.39 1.45-.89l3.864-6.72c.31-.537.288-1.2 0-1.7" fill="#4285f4"/><path d="M242.912 562.336l-3.864-6.72c-.31-.536-.871-.863-1.449-.863h-7.728c-.62 0-1.16.363-1.45.863l-3.863 6.706a1.686 1.686 0 0 0 0 1.68l3.863 6.75c.31.537.872.895 1.45.895h7.727c.62 0 1.16-.39 1.45-.89l3.864-6.72c.31-.537.288-1.2 0-1.7"/><title>Fill-4</title><path d="M237.207 559.719l-3.071 1.476-1.47-1.469-2.4 2.412 1.599 1.598-1.6 2.934 4.976 4.977h2.357c.62 0 1.16-.39 1.45-.89l3.357-5.84z" fill="#000" fill-opacity=".07"/><path d="M237.207 559.719l-3.071 1.476-1.47-1.469-2.4 2.412 1.599 1.598-1.6 2.934 4.976 4.977h2.357c.62 0 1.16-.39 1.45-.89l3.357-5.84z"/><title>Fill-7</title><path fill="#fff" d="M231.238 561.804h.734v2.864h-.734z"/><path d="M231.238 561.804h.734v2.864h-.734z"/><title>Fill-9</title><path fill="#fff" d="M235.498 561.456h.734v3.206h-.734z"/><path d="M235.498 561.456h.734v3.206h-.734z"/><title>Fill-10</title><path fill="#fff" d="M232.321 560.703h2.828v.734h-2.828z"/><path d="M232.321 560.703h2.828v.734h-2.828z"/><title>Fill-11</title><path fill="#fff" d="M232.321 564.963h2.828v.734h-2.828z"/><path d="M232.321 564.963h2.828v.734h-2.828z"/><g><title>Fill-12</title><path d="M230.356 559.674h2.204c.08 0 .147.066.147.147v2.204a.147.147 0 0 1-.147.147h-2.204a.147.147 0 0 1-.147-.147v-2.204c0-.08.066-.147.147-.147" fill="#fff"/><path d="M230.356 559.674h2.204c.08 0 .147.066.147.147v2.204a.147.147 0 0 1-.147.147h-2.204a.147.147 0 0 1-.147-.147v-2.204c0-.08.066-.147.147-.147"/></g><g><title>Fill-13</title><path d="M234.91 559.674h2.203c.082 0 .147.066.147.147v2.204a.147.147 0 0 1-.147.147h-2.203a.147.147 0 0 1-.147-.147v-2.204c0-.08.066-.147.147-.147" fill="#fff"/><path d="M234.91 559.674h2.203c.082 0 .147.066.147.147v2.204a.147.147 0 0 1-.147.147h-2.203a.147.147 0 0 1-.147-.147v-2.204c0-.08.066-.147.147-.147"/></g><g><title>Fill-14</title><path d="M230.356 564.228h2.204c.08 0 .147.066.147.147v2.204a.147.147 0 0 1-.147.147h-2.204a.147.147 0 0 1-.147-.147v-2.204c0-.08.066-.147.147-.147" fill="#fff"/><path d="M230.356 564.228h2.204c.08 0 .147.066.147.147v2.204a.147.147 0 0 1-.147.147h-2.204a.147.147 0 0 1-.147-.147v-2.204c0-.08.066-.147.147-.147"/></g><g><title>Fill-15</title><path d="M234.91 564.228h2.203c.082 0 .147.066.147.147v2.204a.147.147 0 0 1-.147.147h-2.203a.147.147 0 0 1-.147-.147v-2.204c0-.08.066-.147.147-.147" fill="#fff"/><path d="M234.91 564.228h2.203c.082 0 .147.066.147.147v2.204a.147.147 0 0 1-.147.147h-2.203a.147.147 0 0 1-.147-.147v-2.204c0-.08.066-.147.147-.147"/></g></g><g><title>zone internal - purple</title><path fill="#ede7f7" d="M255.5 706.667H425V827H255.5z"/><path stroke="#fff" stroke-linecap="round" stroke-linejoin="round" stroke-width="2" d="M255.5 706.667H425V827H255.5z"/><text transform="translate(265.5 721.667)" fill="#757575"><tspan font-family="Roboto" font-size="10" font-weight="400" x="0" y="9">10.0.1.0/24 Subnet</tspan></text></g><g><title>VPN gateway</title><path fill="#fff" d="M390.667 587.167h130v54h-130z"/><path stroke="#dfdfdf" stroke-linecap="round" stroke-linejoin="round" stroke-width="2" clip-path="url(#f)" d="M390.667 587.167h130v54h-130z"/><text transform="translate(431.667 607.167)" fill="#212121"><tspan font-family="Roboto" font-size="12" font-weight="400" x="0" y="11">VPC Routing</tspan></text><path d="M422.667 610.167h-14c-1.1 0-2 .9-2 2v4c0 1.1.9 2 2 2h14c1.1 0 2-.9 2-2v-4c0-1.1-.9-2-2-2zm-11 5h-2v-2h2zm3.5 0h-2v-2h2zm3.5 0h-2v-2h2z" fill="#616161"/></g><g><title>zone internal - green</title><path fill="#e2f3ec" d="M465 661.167h210.667V847H465z"/><path stroke="#fff" stroke-linecap="round" stroke-linejoin="round" stroke-width="2" d="M465 661.167h210.667V847H465z"/><text transform="translate(475 676.167)" fill="#757575"><tspan font-family="Roboto" font-size="10" font-weight="400" x="0" y="9">us-east1 Region</tspan></text></g><g><title>zone internal - purple</title><path fill="#ede7f7" d="M486.167 706.667h169.5V827h-169.5z"/><path stroke="#fff" stroke-linecap="round" stroke-linejoin="round" stroke-width="2" d="M486.167 706.667h169.5V827h-169.5z"/><text transform="translate(496.167 721.667)" fill="#757575"><tspan font-family="Roboto" font-size="10" font-weight="400" x="0" y="9">10.20.7.0/24 Subnet</tspan></text></g><g><title>Compute Engine</title><path fill="#fff" d="M275 750.333h130v56H275z"/><path stroke="#dfdfdf" stroke-linecap="round" stroke-linejoin="round" stroke-width="2" clip-path="url(#g)" d="M275 750.333h130v56H275z"/><text transform="translate(326 764.333)" fill="#212121"><tspan font-family="Roboto" font-size="12" font-weight="400" x="0" y="11">Standalone</tspan> <tspan font-family="Roboto" font-size="12" font-weight="400" x="0" y="25">Instance 1</tspan></text><title>Compute Engine</title><title>Fill-1</title><path d="M318.666 777.047l-5.754-10.006c-.461-.799-1.297-1.286-2.158-1.286h-11.508c-.922 0-1.727.54-2.158 1.285l-5.754 9.987a2.51 2.51 0 0 0 0 2.501l5.754 10.052c.46.799 1.297 1.332 2.158 1.332h11.508c.922 0 1.727-.582 2.158-1.326l5.754-10.007a2.566 2.566 0 0 0 0-2.532" fill="#4285f4"/><title>Fill-4</title><path d="M317.015 782.45l-9.47-9.47-.679 1.47-1.476-1.476-.684 1.463-1.46-1.46-.358 1.77-1.3.223-.269 1.155-1.68.402 1.506 1.505-1.49.664 1.49 1.49-1.5.64 10.086 10.085h1.023c.922 0 1.727-.58 2.158-1.325z" fill="#000" fill-opacity=".07"/><title>Fill-7</title><path d="M306.275 776.823h-2.495a.266.266 0 0 0-.266.266v2.495c.001.146.12.265.266.266h2.495c.147 0 .265-.12.266-.266v-2.495a.267.267 0 0 0-.266-.266" fill="#fff"/><g><title>Fill-9</title><path d="M308.116 781.424h-6.177v-6.176h6.177zm2.11-4.802a.24.24 0 0 0 .238-.239v-.388a.239.239 0 0 0-.238-.238h-1.214v-1.135a.267.267 0 0 0-.266-.266h-1.139v-1.218a.24.24 0 0 0-.238-.238h-.389a.24.24 0 0 0-.238.238v1.218h-1.282v-1.218a.24.24 0 0 0-.238-.239h-.389a.24.24 0 0 0-.238.239v1.218h-1.282v-1.218a.24.24 0 0 0-.238-.239h-.389a.24.24 0 0 0-.238.239v1.218h-1.139a.266.266 0 0 0-.266.266v1.134h-1.214a.24.24 0 0 0-.238.239v.389a.24.24 0 0 0 .239.238h1.213v1.282h-1.214a.24.24 0 0 0-.238.238v.388a.24.24 0 0 0 .239.239h1.214v1.282h-1.214a.24.24 0 0 0-.238.238v.388c0 .132.106.238.238.239h1.214v1.135c0 .146.119.265.265.265h1.14v1.218a.24.24 0 0 0 .237.239h.389a.239.239 0 0 0 .238-.239v-1.218h1.282v1.218a.24.24 0 0 0 .238.239h.389a.239.239 0 0 0 .238-.239v-1.218h1.282v1.218a.24.24 0 0 0 .238.239h.389a.24.24 0 0 0 .238-.239v-1.218h1.14a.267.267 0 0 0 .265-.265v-1.135h1.214a.239.239 0 0 0 .238-.239v-.388a.239.239 0 0 0-.238-.238h-1.214v-1.282h1.214a.239.239 0 0 0 .238-.239v-.388a.24.24 0 0 0-.238-.238h-1.214v-1.282z" fill="#fff"/></g></g><g><title>Compute Engine</title><path fill="#fff" d="M505.917 750.333h130v56h-130z"/><path stroke="#dfdfdf" stroke-linecap="round" stroke-linejoin="round" stroke-width="2" clip-path="url(#h)" d="M505.917 750.333h130v56h-130z"/><text transform="translate(556.917 764.333)" fill="#212121"><tspan font-family="Roboto" font-size="12" font-weight="400" x="0" y="11">Standalone</tspan> <tspan font-family="Roboto" font-size="12" font-weight="400" x="0" y="25">Instance 2</tspan></text><title>Compute Engine</title><title>Fill-1</title><path d="M549.583 777.047l-5.754-10.006c-.462-.799-1.298-1.286-2.158-1.286h-11.508c-.922 0-1.727.54-2.158 1.285l-5.754 9.987a2.51 2.51 0 0 0 0 2.501l5.753 10.052c.462.799 1.298 1.332 2.158 1.332h11.508c.923 0 1.728-.582 2.158-1.326l5.754-10.007a2.566 2.566 0 0 0 0-2.532" fill="#4285f4"/><title>Fill-4</title><path d="M547.931 782.45l-9.47-9.47-.678 1.47-1.477-1.476-.683 1.463-1.46-1.46-.359 1.77-1.298.223-.27 1.155-1.68.402 1.505 1.505-1.49.664 1.49 1.49-1.499.64 10.085 10.085h1.023c.923 0 1.728-.58 2.159-1.325z" fill="#000" fill-opacity=".07"/><title>Fill-7</title><path d="M537.192 776.823h-2.495a.266.266 0 0 0-.266.266v2.495c0 .146.119.265.266.266h2.495c.146 0 .265-.12.266-.266v-2.495a.267.267 0 0 0-.266-.266" fill="#fff"/><g><title>Fill-9</title><path d="M539.032 781.424h-6.176v-6.176h6.177zm2.11-4.802a.24.24 0 0 0 .239-.239v-.388a.239.239 0 0 0-.238-.238h-1.214v-1.135a.267.267 0 0 0-.266-.266h-1.14l.001-1.218a.24.24 0 0 0-.238-.238h-.39a.24.24 0 0 0-.237.238v1.218h-1.282v-1.218a.24.24 0 0 0-.238-.239h-.39a.24.24 0 0 0-.238.239v1.218h-1.281v-1.218a.24.24 0 0 0-.238-.239h-.39a.24.24 0 0 0-.237.239v1.218h-1.14a.266.266 0 0 0-.265.266v1.134h-1.214a.24.24 0 0 0-.238.239v.389a.24.24 0 0 0 .238.238h1.214v1.282h-1.214a.24.24 0 0 0-.238.238v.388a.24.24 0 0 0 .238.239h1.214v1.282h-1.214a.24.24 0 0 0-.238.238v.388a.24.24 0 0 0 .238.239h1.214v1.135c0 .146.12.265.266.265h1.139v1.218a.24.24 0 0 0 .238.239h.389a.239.239 0 0 0 .238-.239v-1.218h1.281v1.218a.24.24 0 0 0 .24.239h.388a.239.239 0 0 0 .238-.239v-1.218h1.282v1.218a.24.24 0 0 0 .238.239h.388a.24.24 0 0 0 .239-.239v-1.218h1.139a.267.267 0 0 0 .265-.265v-1.135h1.215a.239.239 0 0 0 .238-.239v-.388a.239.239 0 0 0-.238-.238h-1.214v-1.282h1.214a.239.239 0 0 0 .238-.239v-.388a.24.24 0 0 0-.238-.238h-1.214v-1.282z" fill="#fff"/></g></g><g><path d="M384.917 651.667H615.25a.5.5 0 0 0 0-1H384.917a.5.5 0 1 0 0 1z" fill="#616161"/></g><g><path d="M456.167 650.667V643a.5.5 0 0 0-1 0v7.667a.5.5 0 0 0 1 0z" fill="#616161"/></g><g><path d="M385.5 750.333v-98.666a.5.5 0 1 0-1 0v98.666a.5.5 0 1 0 1 0z" fill="#616161"/></g><g><path d="M615.917 750.333v-98.666a.5.5 0 1 0-1 0v98.666a.5.5 0 1 0 1 0z" fill="#616161"/></g><g><path d="M456.167 228.083v-7.666a.5.5 0 0 0-1 0v7.666a.5.5 0 1 0 1 0z" fill="#616161"/></g><g><path d="M384 229.167h230.333a.5.5 0 0 0 0-1H384a.5.5 0 0 0 0 1z" fill="#616161"/></g><g><path d="M384.5 328.833v-99.666a.5.5 0 1 0-1 0v99.666a.5.5 0 0 0 1 0z" fill="#616161"/></g><g><path d="M615.167 328.617V229.2a.5.5 0 0 0-1 0v99.417a.5.5 0 1 0 1 0z" fill="#616161"/></g><g fill="#616161"><path d="M179.267 169.217h-1.1l-7.2-.1c-.3 0-.5-.2-.5-.5s.2-.5.5-.5l7.7.1v-45.5c0-.3.2-.5.5-.5h7.8c.3 0 .5.2.5.5s-.2.5-.5.5h-7.2v45.5c0 .3-.3.5-.5.5z"/><path d="M187.867 124.817c-1.2-1.2-1.2-3.1 0-4.2s3.1-1.2 4.2 0 1.2 3.1 0 4.2-3 1.2-4.2 0"/><path d="M189.967 126.217c-.9 0-1.8-.4-2.5-1-.7-.7-1-1.5-1-2.5 0-.9.4-1.8 1-2.5 1.4-1.4 3.6-1.4 4.9 0 .7.7 1 1.5 1 2.5s-.3 1.8-.9 2.5c-.7.6-1.6 1-2.5 1zm0-6c-.6 0-1.3.2-1.8.7-.4.5-.7 1.1-.7 1.8s.3 1.3.7 1.8c.9.9 2.6.9 3.5 0 .5-.5.8-1.1.8-1.8s-.3-1.3-.7-1.8c-.5-.5-1.2-.7-1.8-.7zm-19.9 46.3c1.2 1.2 1.2 3.1 0 4.2-1.2 1.2-3.1 1.2-4.2 0-1.2-1.2-1.2-3.1 0-4.2 1.1-1.2 3-1.2 4.2 0"/><path d="M167.967 172.117c-.9 0-1.8-.4-2.5-1-.7-.7-1-1.5-1-2.5 0-.9.4-1.8 1-2.5 1.4-1.4 3.6-1.4 4.9 0 .7.7 1 1.5 1 2.5 0 .9-.4 1.8-1 2.5-.6.6-1.4 1-2.4 1zm0-6c-.6 0-1.3.2-1.8.7-.4.5-.7 1.1-.7 1.8s.3 1.3.7 1.8c.5.5 1.1.7 1.8.7s1.3-.3 1.8-.7c.4-.5.7-1.2.7-1.8 0-.7-.3-1.3-.7-1.8-.5-.5-1.2-.7-1.8-.7z"/></g><g fill="#616161"><path d="M179.65 344.45h-1.1l-6.9-.3c-.3 0-.5-.2-.5-.5s.3-.5.5-.5l6.9.3h.5v-115.5c0-.3.2-.5.5-.5h7.7c.3 0 .5.2.5.5s-.1.5-.3.5h-7.2v115.5c-.1.3-.3.5-.6.5z"/><path d="M188.25 230.05c-1.2-1.2-1.2-3.1 0-4.2s3.1-1.2 4.2 0 1.2 3.1 0 4.2-3 1.2-4.2 0"/><path d="M190.45 231.45c-.9 0-1.8-.4-2.5-1-.7-.7-1-1.5-1-2.5 0-.9.4-1.8 1-2.5 1.4-1.4 3.6-1.4 4.9 0 .7.7 1 1.5 1 2.5s-.4 1.8-1 2.5c-.6.6-1.5 1-2.4 1zm0-6c-.6 0-1.3.2-1.8.7-.5.5-.7 1.1-.7 1.8s.3 1.3.7 1.8c.9.9 2.6.9 3.5 0 .5-.5.7-1.1.7-1.8s-.3-1.3-.7-1.8c-.5-.5-1.1-.7-1.7-.7zm-19.6 116.1c1.2 1.2 1.2 3.1 0 4.2s-3.1 1.2-4.2 0c-1.2-1.2-1.2-3.1 0-4.2 1.1-1.2 3-1.2 4.2 0"/><path d="M168.75 347.15c-.9 0-1.8-.3-2.5-1-1.4-1.4-1.4-3.6 0-5 .7-.7 1.5-1 2.5-1 .9 0 1.8.4 2.5 1 1.4 1.4 1.4 3.6 0 5-.7.6-1.6 1-2.5 1zm0-6c-.7 0-1.3.3-1.8.7-1 1-1 2.6 0 3.5 1 1 2.6 1 3.5 0 1-1 1-2.6 0-3.5-.4-.5-1-.7-1.7-.7z"/></g><g fill="#616161"><path d="M268.55 363.1h-64.5c-.3 0-.5-.2-.5-.5V194.1h-49.5c-.3 0-.5-.2-.5-.5s.2-.5.5-.5h50c.3 0 .5.2.5.5v168.5h64c.3 0 .5.2.5.5s-.2.5-.5.5z"/><path d="M269.45 364.7c-1.2-1.2-1.2-3.1 0-4.2s3.1-1.2 4.2 0c1.2 1.2 1.2 3.1 0 4.2-1.2 1.2-3 1.2-4.2 0"/><path d="M271.55 366.1c-.9 0-1.8-.3-2.5-1-1.4-1.4-1.4-3.6 0-5 1.3-1.3 3.6-1.3 4.9 0 1.4 1.4 1.4 3.6 0 5-.6.7-1.5 1-2.4 1zm-1.8-1.7c1 1 2.6 1 3.5 0 .9-1 1-2.6 0-3.5-.9-.9-2.6-.9-3.5 0-.9.9-.9 2.5 0 3.5z"/></g><g fill="#616161"><path d="M570.3 468H92c-.1 0-.3-.1-.4-.1 0-.1-.1-.3-.1-.4l.3-84.5c0-.3.3-.5.5-.5.3 0 .5.2.5.5l-.3 84h477.3v-62.5c0-.3.2-.5.5-.5s.5.2.5.5v63c0 .3-.2.5-.5.5z"/><path d="M572.5 403.6c-1.2 1.2-3.1 1.2-4.2 0s-1.2-3.1 0-4.2 3.1-1.2 4.2 0 1.1 3 0 4.2"/><path d="M570.3 405c-.9 0-1.8-.4-2.5-1-.7-.7-1-1.5-1-2.5s.4-1.8 1-2.5c1.3-1.3 3.6-1.3 4.9 0 .7.7 1 1.5 1 2.5 0 .9-.4 1.8-1 2.5-.6.6-1.4 1-2.4 1zm0-6c-.7 0-1.3.3-1.8.7-.5.4-.7 1.1-.7 1.8s.3 1.3.7 1.8c.9.9 2.6.9 3.5 0 .5-.5.7-1.1.7-1.8s-.3-1.3-.7-1.8c-.4-.4-1-.7-1.7-.7z"/></g></g></svg>